<?xml version="1.0" encoding="utf-8"?>
<!-- Generator: Adobe Illustrator 24.0.2, SVG Export Plug-In . SVG Version: 6.00 Build 0)  -->
<svg version="1.1" id="Capa_1" xmlns="http://www.w3.org/2000/svg" xmlns:xlink="http://www.w3.org/1999/xlink" x="0px" y="0px"
	 viewBox="0 0 265.18 72.09" style="enable-background:new 0 0 265.18 72.09;" xml:space="preserve">
<g>
	<path d="M254.69,46.68c-0.88,1.01-1.83,1.93-2.88,2.76c-0.47,0.37-0.98,0.65-1.56,0.8c-1.44,0.38-2.48-0.28-2.81-1.74
		c-0.24-1.02-0.11-2.04,0.08-3.03c0.68-3.44,1.43-6.88,2.13-10.33c0.09-0.42,0.28-0.53,0.69-0.52c1.79,0.02,3.58,0.02,5.36,0
		c1.89-0.02,2.92-1.1,2.88-2.99c-0.02-0.72-0.36-1.24-1.03-1.52c-0.42-0.18-0.87-0.23-1.33-0.23c-1.6,0-3.21-0.01-4.81,0
		c-0.41,0.01-0.58,0-0.48-0.54c0.35-1.75,0.92-3.45,1.02-5.24c0.11-2-1.44-3.22-3.37-2.68c-1.37,0.39-1.78,1.5-2.06,2.69
		c-0.31,1.34-0.55,2.69-0.87,4.03c-0.14,0.56-0.04,1.32-0.47,1.64s-1.14,0.09-1.72,0.09c-0.84,0.01-1.68,0.01-2.44,0.43
		c-0.91,0.5-1.46,1.87-1.19,2.95c0.21,0.87,0.96,1.35,2.16,1.37c0.56,0.01,1.13,0.04,1.69,0c0.51-0.04,0.57,0.16,0.48,0.59
		c-0.47,2.14-0.91,4.28-1.39,6.41c-0.55,2.45-1.08,4.9-0.88,7.43c0.34,4.32,2.99,6.47,7.04,6.42c2.59-0.03,4.78-1.21,6.71-2.86
		c1.47-1.26,2.66-2.73,3.35-4.56v-0.68C258.11,45.07,256.24,44.91,254.69,46.68z"/>
	<path d="M6.25,30.7c0.08,0.69,0.31,1.32,0.72,1.88c0.41,0.67,0.96,1.17,1.75,1.36c1.13,0.45,2.22,0.24,3.27-0.27v0.01
		c0.55-0.18,1.06-0.42,1.5-0.81c0.18-0.04,0.33-0.11,0.41-0.28c1.62-1.13,2.85-2.59,3.8-4.31c0.27-0.28,0.42-0.61,0.54-0.97
		l0.01-0.01c0.21-0.29,0.36-0.6,0.44-0.95c0.84-1.77,1.27-3.65,1.13-5.61c-0.1-1.4-0.44-2.76-1.74-3.62
		c-0.02-0.02-0.04-0.03-0.06-0.04c-1.23-0.92-2.53-0.81-3.87-0.24c-0.44,0.09-0.83,0.31-1.21,0.55c-0.8,0.4-1.48,0.95-2.08,1.61
		c-0.24,0.11-0.48,0.2-0.52,0.51c-0.4,0.3-0.7,0.7-0.96,1.12c-0.87,1.01-1.54,2.13-2.03,3.36c-0.39,0.67-0.58,1.41-0.82,2.13
		c-0.22,0.7-0.21,1.45-0.52,2.12v0.41c0,0.01,0,0.02,0,0.02c0,0.43,0,0.87,0,1.3c0,0.01,0,0.02,0,0.02v0.41
		C6.2,30.42,6.12,30.65,6.25,30.7z"/>
	<path d="M231.65,29.57c-3.79-0.71-7.2,0.27-10.11,2.74c-4.05,3.44-5.99,7.92-6.15,13.2c-0.01,0.29,0.06,0.59-0.12,0.85
		c-0.85,1.23-1.72,2.45-2.89,3.4c-0.48,0.38-1.04,0.74-1.68,0.42c-0.61-0.32-0.66-0.98-0.71-1.59c-0.01-0.11-0.01-0.22-0.01-0.34
		c0-1.61,0.28-3.2,0.61-4.76c1.29-6.13,2.65-12.25,3.96-18.37c0.34-1.59,0.78-3.16,0.91-4.78c0.13-1.54-0.82-2.62-2.36-2.69
		c-1.6-0.08-2.51,0.6-2.96,2.28c-0.27,0.99-0.47,2.01-0.68,3.02c-0.59,2.69-1.17,5.37-1.74,8.06c-0.09,0.44-0.16,0.58-0.54,0.2
		c-0.45-0.44-0.99-0.79-1.57-1.05c-2.5-1.11-5.07-1.07-7.6-0.19c-4.81,1.67-7.83,5.16-9.61,9.82c-1.11,2.88-2.26,5.75-3.93,8.36
		c-0.43,0.67-0.93,1.29-1.58,1.76c-0.43,0.33-0.94,0.52-1.45,0.25c-0.5-0.25-0.6-0.77-0.58-1.28c0.03-0.73,0.07-1.45,0.17-2.16
		c0.5-3.56,1.29-7.06,2.04-10.56c0.4-1.83,0.21-3.4-1.41-4.58c-0.78-0.58-1.59-1.1-2.51-1.45c-2.66-1.02-5.38-1.16-8.11-0.44
		c-4.53,1.18-7.76,4.02-9.97,8.07c-1.13,2.08-2.33,4.12-3.62,6.11c-1.3,1.98-2.61,3.97-4.39,5.57c-1.52,1.38-2.48,1.08-2.88-0.92
		c-0.45-2.3-0.83-4.61-1.27-6.92c-0.09-0.46,0.04-0.73,0.4-1.02c2.52-2.03,5.02-4.08,7.52-6.12c0.6-0.49,1.16-1.02,1.5-1.73
		c0.43-0.89,0.38-1.76-0.24-2.54c-0.59-0.75-1.39-0.93-2.3-0.78c-0.89,0.16-1.58,0.66-2.24,1.21c-3.25,2.67-6.48,5.35-9.72,8.03
		c-0.81,0.67-1.63,1.33-2.44,1.99c-0.16-0.19-0.09-0.32-0.06-0.45c1.14-5.33,2.29-10.66,3.44-15.99c0.25-1.16,0.51-2.33,0.71-3.51
		c0.23-1.34-0.26-2.4-1.33-2.81c-1.35-0.53-3.14-0.38-3.82,1.56c-0.13,0.38-0.27,0.76-0.35,1.16c-1.39,6.45-2.77,12.9-4.15,19.35
		c-0.86,3.99-1.73,7.97-2.58,11.96c-0.44,2.03,0.34,3.28,2.16,3.55c1.41,0.21,2.62-0.6,3.05-2.17c0.38-1.39,0.64-2.81,0.95-4.22
		c0.07-0.32,0.18-0.58,0.45-0.8c1.38-1.09,2.77-2.19,4.11-3.33c0.51-0.43,0.62-0.24,0.72,0.27c0.36,1.91,0.72,3.81,1.12,5.71
		c0.29,1.39,0.78,2.73,1.97,3.6c1.79,1.3,3.72,1.24,5.62,0.25c2.02-1.07,3.34-2.86,4.65-4.66c0.35-0.48,0.6-1.04,1.11-1.51
		c0.09,0.31,0.15,0.53,0.21,0.76c1.13,4.4,5.15,6.86,9.58,5.92c2.85-0.59,4.84-2.3,6.41-4.63c0.16-0.23,0.23-0.54,0.6-0.69
		c0.04,0.31,0.07,0.6,0.09,0.89c0.28,3.38,2.96,5.27,6.24,4.43c2.06-0.52,3.45-1.89,4.64-3.53c0.32-0.45,0.63-0.92,0.99-1.44
		c0.47,1.04,0.95,1.96,1.67,2.72c2.28,2.39,5.08,2.87,8.15,2.12c2.8-0.68,4.74-2.51,6.27-4.85c0.16-0.25,0.24-0.56,0.61-0.74
		c0.04,0.46,0.06,0.84,0.09,1.22c0.2,2.43,1.7,4.25,3.78,4.59c1.92,0.3,3.67-0.14,5.27-1.22c1.14-0.76,2.05-1.76,2.96-2.86
		c0.68,1,1.35,1.88,2.29,2.5c3.72,2.41,7.57,2.16,11.33,0.25c5.98-3.03,9.35-10.74,8.27-17.29
		C237.99,32.94,235.45,30.29,231.65,29.57z M177.96,35.61c-0.72,2.81-1.18,5.69-2.31,8.39c-0.76,1.83-1.77,3.5-3.26,4.83
		c-1.03,0.91-2.21,1.47-3.58,1.62c-2.24,0.24-3.99-1.24-4.27-3.65c-0.05-0.45-0.06-0.9-0.08-1.26c0.16-3.7,1.46-6.8,4.09-9.3
		c2.46-2.33,6-2.89,8.9-1.43C177.79,34.98,178.09,35.14,177.96,35.61z M206.59,36.13c-0.79,3.89-1.94,7.65-4.37,10.88
		c-1.22,1.62-2.67,2.97-4.76,3.35c-2.46,0.44-4.22-0.85-4.56-3.33c-0.07-0.49-0.17-0.98-0.13-1.49c0.3-4.3,1.71-8.06,5.57-10.41
		c2.63-1.6,5.34-1.35,7.93,0.26C206.57,35.58,206.66,35.8,206.59,36.13z M228.31,49.51c-0.88,0.67-1.95,0.95-3.06,0.96
		c-2.36,0.01-4.02-1.53-4.25-3.94c-0.06-0.58-0.19-1.17-0.05-1.76c0.33-3.58,1.54-6.75,4.41-9.09c1.42-1.17,3.07-1.6,4.88-1.14
		s2.75,1.79,2.91,3.52C233.58,42.71,232.12,46.64,228.31,49.51z"/>
	<path d="M90.81,17.93c-4.36-1.35-8.78-1.05-13.2-0.2c-1.35,0.26-2.08,1.17-2.36,2.47c-0.69,3.19-1.37,6.38-2.06,9.57
		c-1.34,6.18-2.71,12.36-4.02,18.55c-0.33,1.58-0.84,3.14-0.87,4.78c-0.01,1.19,0.58,2.06,1.61,2.4c1.23,0.39,2.48,0.03,3.15-0.92
		c0.48-0.66,0.63-1.44,0.79-2.21c0.57-2.62,1.12-5.24,1.69-7.86c0.06-0.3,0.01-0.74,0.62-0.65c1.52,0.23,3.06,0.26,4.59,0.27
		c1.59,0.02,3.17-0.04,4.73-0.29c3.01-0.49,5.83-1.47,8.25-3.36c3.7-2.89,5.29-6.78,5.26-11.41C98.96,23.6,96.03,19.54,90.81,17.93z
		 M93.48,30.72c-0.58,4.87-4.33,7.34-8.65,8.1c-1.43,0.25-2.87,0.33-4.14,0.31c-1.24-0.04-2.3-0.02-3.36-0.14
		c-0.49-0.06-0.59-0.17-0.49-0.66c0.76-3.43,1.5-6.86,2.24-10.3c0.35-1.65,0.72-3.3,1.04-4.96c0.1-0.49,0.3-0.71,0.82-0.76
		c2.34-0.23,4.68-0.46,7,0.08C92.38,23.4,93.96,26.67,93.48,30.72z"/>
	<path d="M115.33,29.82c-2.97-0.88-5.86-0.53-8.62,0.82c-2.5,1.22-4.42,3.11-5.88,5.46c-2.36,3.82-3.45,7.94-2.5,12.4
		c0.78,3.7,3.07,6.05,6.86,6.76c3.57,0.67,6.84-0.19,9.67-2.42c4.38-3.44,6.35-8.11,6.59-13.42c-0.03-0.7-0.05-1.22-0.08-1.74
		C121.1,33.96,118.72,30.82,115.33,29.82z M110.96,49.49c-0.91,0.67-1.99,0.98-3.12,0.97c-2.43-0.01-4.07-1.61-4.24-4.11
		c-0.03-0.36-0.01-0.72-0.01-1.08c0.19-3.94,1.48-7.37,4.72-9.83c1.84-1.4,4.48-1.43,6.05-0.13c1.14,0.94,1.52,2.28,1.52,3.64
		C115.88,43.21,114.52,46.88,110.96,49.49z"/>
	<path d="M133.41,17.75c-1.5-0.42-2.79,0.15-3.36,1.5c-0.16,0.37-0.3,0.76-0.38,1.15c-0.74,3.41-1.47,6.83-2.2,10.24
		c-1.25,5.81-2.51,11.61-3.76,17.42c-0.34,1.61-0.67,3.22-0.99,4.71c0.06,0.67,0.14,1.2,0.47,1.66c1.13,1.6,3.83,1.33,4.66-0.48
		c0.2-0.42,0.34-0.88,0.44-1.34c1.63-7.51,3.25-15.02,4.85-22.53c0.67-3.15,1.44-6.28,1.97-9.46
		C135.36,19.14,134.72,18.11,133.41,17.75z"/>
	<path d="M16.76,42.31c-0.05-0.24-0.21-0.39-0.4-0.52c-0.91-1.24-2.01-2.26-3.38-2.98c-0.28-0.27-0.63-0.42-1-0.52
		c-0.03-0.03-0.06-0.03-0.09-0.02c-0.95-0.46-1.92-0.62-2.94-0.28c-0.75,0.08-1.28,0.5-1.72,1.08c-0.29,0.21-0.46,0.5-0.54,0.84
		c-0.24,0.41-0.41,0.84-0.42,1.32c-0.14,0.05-0.07,0.29-0.26,0.3v0.41c0,0.01,0,0.02,0,0.02c0,0.44,0,0.87,0,1.31
		c0,0.01,0,0.02,0,0.02v0.68c0.21,0.06,0.14,0.25,0.17,0.39c0.33,1.47,0.69,2.91,1.46,4.22c0.19,0.51,0.42,1,0.8,1.39
		c0.4,0.82,0.95,1.51,1.59,2.15c0.33,0.51,0.74,0.93,1.25,1.25c0.36,0.37,0.73,0.72,1.21,0.92c0.28,0.27,0.61,0.45,0.98,0.55
		c0.4,0.28,0.85,0.41,1.31,0.53c1.17,0.29,2.31,0.3,3.32-0.52c0.64-0.38,1.02-0.96,1.24-1.65c0.62-1.31,0.6-2.69,0.38-4.08
		C19.33,46.6,18.36,44.32,16.76,42.31z"/>
	<path d="M39.97,11.95c-0.67-0.67-1.38-1.29-2.29-1.63c-0.63-0.42-1.36-0.6-2.08-0.78c-0.08-0.01-0.15-0.02-0.23-0.04
		c-0.96-0.42-2.01-0.4-3.03-0.53V8.84h-1.63v0.12c-0.98,0.06-1.95,0.18-2.9,0.43c-0.56,0.14-1.18,0.18-1.61,0.66
		c-0.75-0.02-1.31,0.38-1.88,0.79c-0.31,0.13-0.59,0.32-0.81,0.58c-0.25,0.22-0.52,0.43-0.73,0.67c-1.23,1.4-1.35,3.06-0.35,4.48
		c0.18,0.49,0.55,0.81,0.95,1.11c1.35,1.21,2.96,1.85,4.72,2.16c0.2,0.18,0.45,0.13,0.69,0.13c0.24,0.18,0.52,0.12,0.78,0.14
		c0.16,0.06,0.33,0.07,0.49,0.05c2.54,0.26,4.99-0.04,7.34-1.13c1.27-0.51,2.35-1.27,3.1-2.43v-0.01c1.02-1.43,0.91-3.03-0.28-4.37
		C40.18,12.09,40.1,12,39.97,11.95z"/>
	<path d="M53.55,20.62c0,0,0-0.01-0.01-0.01c-0.44-0.7-0.97-1.29-1.64-1.78c-0.03-0.04-0.07-0.07-0.11-0.11
		c-1.06-1.08-2.34-1.83-3.82-2.17c-1.25-0.29-2.46-0.18-3.42,0.83c-0.59,0.4-0.88,1.01-1.08,1.66c-0.82,2.67-0.2,5.18,0.93,7.62
		c0.08,0.3,0.19,0.59,0.41,0.82c0.46,1.09,1.14,2.05,1.93,2.93c0.74,0.99,1.65,1.8,2.69,2.48c0.67,0.51,1.43,0.84,2.22,1.09
		c2.22,0.71,4.18-0.33,4.89-2.56c0.7-2.22,0.24-4.35-0.54-6.45C55.46,23.36,54.67,21.9,53.55,20.62z"/>
	<path d="M55.72,39.08c-0.23-0.37-0.56-0.64-0.96-0.81c-0.19-0.2-0.43-0.26-0.7-0.28c-1.27-0.37-2.45-0.13-3.57,0.55
		c-1.42,0.58-2.51,1.58-3.49,2.73c-0.32,0.32-0.65,0.65-0.85,1.07c-0.8,0.97-1.42,2.06-1.87,3.25c-0.02,0.03-0.03,0.06-0.04,0.09
		c-0.64,1.26-0.91,2.63-1.09,4.03c-0.16,1.33-0.03,2.59,0.58,3.79c0.1,0.32,0.25,0.59,0.52,0.8c1.06,1.32,2.9,1.65,4.56,0.82h0.02
		c1.46-0.45,2.59-1.38,3.6-2.48c0.26-0.09,0.4-0.31,0.54-0.53c0.86-0.99,1.68-2,2.18-3.23c0.18-0.25,0.36-0.5,0.41-0.81
		c0.72-1.36,1.07-2.83,1.25-4.35c0.16-1.34,0.06-2.63-0.57-3.84C56.17,39.54,55.97,39.29,55.72,39.08z"/>
	<path d="M40.06,54.79c-0.23-0.35-0.54-0.63-0.92-0.82c-0.48-0.42-1.02-0.74-1.6-0.99c-2.67-1.19-5.47-1.48-8.33-1.09
		c-2.1,0.28-4.08,0.94-5.76,2.31c-1.49,1.2-2.09,2.98-1.42,4.49c0.64,1.42,1.78,2.34,3.19,2.94c1.54,0.88,3.23,1.16,4.95,1.35v0.12
		h0.68h1.49v-0.12c1.07-0.09,2.16-0.09,3.16-0.54h0.05l0.05-0.02c0.55-0.08,1.08-0.22,1.55-0.52h0.04l0.04-0.02
		c0.26-0.01,0.47-0.16,0.68-0.3c0.42-0.18,0.83-0.38,1.11-0.78c0.53-0.2,0.91-0.58,1.2-1.05c0.37-0.29,0.55-0.69,0.68-1.12
		c0.64-1.46,0.18-2.69-0.81-3.81C40.08,54.81,40.08,54.8,40.06,54.79z"/>
</g>
</svg>
